REM DIRINDEX 1\2,1\3,1\4
REM DIRNAME folder01,folder02,folder03,folder04
TITLE ""
FILE "Track07.mp3" MP3
  TRACK 01 AUDIO
    TITLE "0:"
    INDEX 01 00:00:00
  TRACK 02 AUDIO
    TITLE "4:cjc153_0337"
    INDEX 01 00:00:05
  TRACK 03 AUDIO
    TITLE "0:"
    INDEX 01 00:01:52
  TRACK 04 AUDIO
    TITLE "2:cjc153_0338"
    INDEX 01 00:02:32
  TRACK 05 AUDIO
    TITLE "0:"
    INDEX 01 00:03:29
  TRACK 06 AUDIO
    TITLE "3:cjc153_0339"
    INDEX 01 00:03:55
  TRACK 07 AUDIO
    TITLE "0:"
    INDEX 01 00:04:50
  TRACK 08 AUDIO
    TITLE "2:cjc153_0340"
    INDEX 01 00:05:14
  TRACK 09 AUDIO
    TITLE "0:"
    INDEX 01 00:06:12
  TRACK 10 AUDIO
    TITLE "3:cjc153_0341"
    INDEX 01 00:06:39
  TRACK 11 AUDIO
    TITLE "0:"
    INDEX 01 00:07:39
  TRACK 12 AUDIO
    TITLE "2:cjc153_0342"
    INDEX 01 00:08:05
  TRACK 13 AUDIO
    TITLE "0:"
    INDEX 01 00:09:08
  TRACK 14 AUDIO
    TITLE "3:cjc153_0343"
    INDEX 01 00:09:32
  TRACK 15 AUDIO
    TITLE "0:"
    INDEX 01 00:10:33
  TRACK 16 AUDIO
    TITLE "2:cjc153_0344"
    INDEX 01 00:11:09
  TRACK 17 AUDIO
    TITLE "0:"
    INDEX 01 00:12:14
  TRACK 18 AUDIO
    TITLE "3:cjc153_0345"
    INDEX 01 00:12:36
  TRACK 19 AUDIO
    TITLE "0:"
    INDEX 01 00:13:41
  TRACK 20 AUDIO
    TITLE "2:cjc153_0346"
    INDEX 01 00:14:00
  TRACK 21 AUDIO
    TITLE "0:"
    INDEX 01 00:15:09
  TRACK 22 AUDIO
    TITLE "3:cjc153_0347"
    INDEX 01 00:15:34
  TRACK 23 AUDIO
    TITLE "0:"
    INDEX 01 00:16:42
  TRACK 24 AUDIO
    TITLE "2:cjc153_0348"
    INDEX 01 00:17:06
  TRACK 25 AUDIO
    TITLE "0:"
    INDEX 01 00:18:19
  TRACK 26 AUDIO
    TITLE "3:cjc153_0349"
    INDEX 01 00:18:44
  TRACK 27 AUDIO
    TITLE "0:"
    INDEX 01 00:19:63
  TRACK 28 AUDIO
    TITLE "2:cjc153_0350"
    INDEX 01 00:20:26
  TRACK 29 AUDIO
    TITLE "0:"
    INDEX 01 00:21:25
  TRACK 30 AUDIO
    TITLE "3:cjc153_0351"
    INDEX 01 00:21:53
  TRACK 31 AUDIO
    TITLE "0:"
    INDEX 01 00:22:58
  TRACK 32 AUDIO
    TITLE "2:cjc153_0352"
    INDEX 01 00:23:20
  TRACK 33 AUDIO
    TITLE "0:"
    INDEX 01 00:24:22
  TRACK 34 AUDIO
    TITLE "3:cjc153_0353"
    INDEX 01 00:24:45
  TRACK 35 AUDIO
    TITLE "0:"
    INDEX 01 00:25:48
  TRACK 36 AUDIO
    TITLE "2:cjc153_0354"
    INDEX 01 00:26:13
  TRACK 37 AUDIO
    TITLE "0:"
    INDEX 01 00:27:18
  TRACK 38 AUDIO
    TITLE "3:cjc153_0355"
    INDEX 01 00:27:43
  TRACK 39 AUDIO
    TITLE "0:"
    INDEX 01 00:28:51
  TRACK 40 AUDIO
    TITLE "2:cjc153_0356"
    INDEX 01 00:29:15
  TRACK 41 AUDIO
    TITLE "0:"
    INDEX 01 00:30:12
  TRACK 42 AUDIO
    TITLE "3:cjc153_0357"
    INDEX 01 00:30:36
  TRACK 43 AUDIO
    TITLE "0:"
    INDEX 01 00:31:39
  TRACK 44 AUDIO
    TITLE "2:cjc153_0358"
    INDEX 01 00:32:01
  TRACK 45 AUDIO
    TITLE "0:"
    INDEX 01 00:33:01
  TRACK 46 AUDIO
    TITLE "3:cjc153_0359"
    INDEX 01 00:33:26
  TRACK 47 AUDIO
    TITLE "0:"
    INDEX 01 00:34:28
  TRACK 48 AUDIO
    TITLE "2:cjc153_0360"
    INDEX 01 00:34:67
  TRACK 49 AUDIO
    TITLE "0:"
    INDEX 01 00:35:68
  TRACK 50 AUDIO
    TITLE "3:cjc153_0361"
    INDEX 01 00:36:19
  TRACK 51 AUDIO
    TITLE "0:"
    INDEX 01 00:37:30
  TRACK 52 AUDIO
    TITLE "2:cjc153_0362"
    INDEX 01 00:37:69
  TRACK 53 AUDIO
    TITLE "0:"
    INDEX 01 00:38:61
  TRACK 54 AUDIO
    TITLE "3:cjc153_0363"
    INDEX 01 00:39:11
  TRACK 55 AUDIO
    TITLE "0:"
    INDEX 01 00:40:09
  TRACK 56 AUDIO
    TITLE "2:cjc153_0364"
    INDEX 01 00:40:46
  TRACK 57 AUDIO
    TITLE "0:"
    INDEX 01 00:41:45
  TRACK 58 AUDIO
    TITLE "3:cjc153_0365"
    INDEX 01 00:41:71
  TRACK 59 AUDIO
    TITLE "0:"
    INDEX 01 00:43:03
  TRACK 60 AUDIO
    TITLE "2:cjc153_0366"
    INDEX 01 00:43:40
  TRACK 61 AUDIO
    TITLE "0:"
    INDEX 01 00:44:48
  TRACK 62 AUDIO
    TITLE "3:cjc153_0367"
    INDEX 01 00:44:73
  TRACK 63 AUDIO
    TITLE "0:"
    INDEX 01 00:46:11
  TRACK 64 AUDIO
    TITLE "2:cjc153_0368"
    INDEX 01 00:46:49
  TRACK 65 AUDIO
    TITLE "0:"
    INDEX 01 00:47:46
  TRACK 66 AUDIO
    TITLE "3:cjc153_0369"
    INDEX 01 00:47:74
  TRACK 67 AUDIO
    TITLE "0:"
    INDEX 01 00:49:04
  TRACK 68 AUDIO
    TITLE "2:cjc153_0370"
    INDEX 01 00:49:39
  TRACK 69 AUDIO
    TITLE "0:"
    INDEX 01 00:50:31
  TRACK 70 AUDIO
    TITLE "3:cjc153_0371"
    INDEX 01 00:50:56
  TRACK 71 AUDIO
    TITLE "0:"
    INDEX 01 00:51:54
  TRACK 72 AUDIO
    TITLE "2:cjc153_0372"
    INDEX 01 00:52:20
  TRACK 73 AUDIO
    TITLE "0:"
    INDEX 01 00:53:19
  TRACK 74 AUDIO
    TITLE "3:cjc153_0373"
    INDEX 01 00:53:45
  TRACK 75 AUDIO
    TITLE "0:"
    INDEX 01 00:54:46
